<svg width="40" height="40" viewBox="0 0 40 40" fill="none" xmlns="http://www.w3.org/2000/svg">
<!--    <path d="M32.0845 7.94025V4H24.0203V7.9896H16.029V4H7.91553V7.94025H4V36H16.0044V32.0045C16.0058 30.9457 16.4274 29.9308 17.1766 29.1826C17.9258 28.4345 18.9412 28.0143 20 28.0143C21.0588 28.0143 22.0743 28.4345 22.8234 29.1826C23.5726 29.9308 23.9942 30.9457 23.9956 32.0045V36H36V7.94025H32.0845Z"-->
<!--          fill="url(#paint0_linear)"/>-->
    <path d="M16.8222511,0.000466875088 C17.1355207,0.000466875088 17.4287148,0.150800691 17.6159296,0.402446426 C19.5777163,3.03842383 22.5619478,8.64372754 18.9212974,15.1169522 C18.0963386,16.5829404 17.3035937,17.7235166 16.2998237,19.1670947 L16.2998237,19.1670947 L16.1042053,19.4481536 C15.7736616,19.9238993 15.3754216,20.456137 14.9538383,21.0196555 C12.151686,24.7649283 8.06377442,30.2329707 8.00961752,39.0004202 C8.00588257,39.5499323 7.55955507,40 7.01051625,40 L7.01051625,40 L4.77794507,40 C2.13919721,40 -5.32907052e-15,37.8607779 -5.32907052e-15,35.2219992 L-5.32907052e-15,35.2219992 L-5.32907052e-15,9.55600169 C-5.32907052e-15,4.27844438 4.27792757,0.000466875088 9.55542328,0.000466875088 L9.55542328,0.000466875088 Z M35.2211212,-4.26325641e-14 C37.8598691,-4.26325641e-14 39.9990663,2.13922219 40,4.77660022 L40,4.77660022 L40,35.2205986 C40,37.8593773 37.8608028,39.9985994 35.2220549,39.9985994 L35.2220549,39.9985994 L28.360937,39.9985994 C27.8090969,39.9985994 27.3567002,39.551333 27.3590346,38.9994865 C27.3725737,36.0175546 27.9318837,33.2415145 29.0537717,30.5751903 C29.4627496,29.6026893 28.8913011,28.4630468 27.7885547,28.2576218 C27.0051472,28.1119567 26.2334115,28.5760307 25.9257444,29.3108922 C24.6371838,32.3899342 23.9966385,35.5828937 23.9849668,38.9994865 C23.9826324,39.5489986 23.536305,39.9990663 22.9867993,39.9990663 L22.9867993,39.9990663 L12.3837203,39.9990663 C11.8314133,39.9990663 11.3780828,39.5517998 11.3822557,38.9994865 C11.4392428,31.3502031 14.9883866,26.6044167 17.6551467,23.0402913 C18.0949379,22.4520286 18.510452,21.8969139 18.8746105,21.3726131 L18.8746105,21.3726131 L19.0692952,21.092488 C20.1244208,19.5751435 20.9577834,18.376675 21.8611763,16.7701574 C24.453704,12.1606984 24.7025456,7.15766377 22.5810895,2.30216163 C22.2762235,1.60558383 21.9433454,0.961296047 21.6034642,0.372566414 C21.5077559,0.206825716 21.6296089,-4.26325641e-14 21.8210255,-4.26325641e-14 L21.8210255,-4.26325641e-14 Z M8.423731,8.01204539 C7.01845303,7.74545964 5.80972723,8.95419955 6.075843,10.3594939 C6.22477444,11.144778 6.85784984,11.7778608 7.64265789,11.9263271 C9.04793586,12.1929129 10.2566616,10.984173 9.99054585,9.57887857 C9.84161445,8.79406136 9.20900593,8.16097857 8.423731,8.01204539 Z" fill="url(#paint0_linear)"/>
    <defs>
        <linearGradient id="paint0_linear" x1="2.94192" y1="4.89955" x2="37.7772" y2="39.7345"
                        gradientUnits="userSpaceOnUse">
            <stop offset="0.15937" stop-color="#3BEA62"/>
            <stop offset="0.5404" stop-color="#3C99CC"/>
            <stop offset="0.93739" stop-color="#6B57FF"/>
        </linearGradient>
    </defs>
</svg>