<?xml version="1.0" encoding="UTF-8"?>
<svg width="10px" height="10px" viewBox="0 0 10 10" version="1.1" xmlns="http://www.w3.org/2000/svg" xmlns:xlink="http://www.w3.org/1999/xlink">
    <title>编组 23</title>
    <defs>
        <linearGradient x1="6.85811065%" y1="4.67000864%" x2="83.5397986%" y2="93.4295445%" id="linearGradient-1">
            <stop stop-color="#079CFF" offset="0%"></stop>
            <stop stop-color="#3355FC" offset="100%"></stop>
        </linearGradient>
        <filter id="filter-2">
            <feColorMatrix in="SourceGraphic" type="matrix" values="0 0 0 0 1.000000 0 0 0 0 1.000000 0 0 0 0 1.000000 0 0 0 1.000000 0"></feColorMatrix>
        </filter>
    </defs>
    <g id="页面-1" stroke="none" stroke-width="1" fill="none" fill-rule="evenodd">
        <g id="编组-23">
            <rect id="矩形" fill="url(#linearGradient-1)" x="0" y="0" width="10" height="10" rx="5"></rect>
            <g filter="url(#filter-2)" id="分组">
                <g transform="translate(1.917182, 2.048657)">
                    <path d="M2.23324695,3.10301443 C2.29620737,3.01982534 2.3556816,2.94125406 2.40504591,2.87102237 L2.43426009,2.82953122 C2.58416584,2.61642383 2.70255652,2.44804694 2.82575811,2.23163129 C3.36946277,1.27602525 2.9237895,0.448545552 2.63081093,0.0594109198 C2.60285177,0.0222618644 2.55906535,6.89221638e-05 2.51228082,6.89221638e-05 L1.42703295,6.89221638e-05 C0.638877361,6.89221638e-05 0,0.631602865 0,1.4106992 L0,5.19962717 C0,5.58917533 0.319473541,5.90497676 0.713551337,5.90497676 L1.0469696,5.90497676 C1.12896455,5.90497676 1.19562032,5.83853577 1.19617811,5.75741437 C1.20426605,4.46312473 1.8147659,3.65590815 2.23324695,3.10301443 Z M0.90738295,1.52931426 C0.867640497,1.32185851 1.0481549,1.14341898 1.25802294,1.18277354 C1.37529804,1.20475972 1.46977352,1.2982182 1.49201534,1.41407638 C1.5317578,1.62153215 1.3512434,1.79997168 1.14137536,1.7606171 C1.02416998,1.73869986 0.929624778,1.64524138 0.90738295,1.52931426 Z" id="形状" fill="#FFFFFF" fill-rule="nonzero"></path>
                    <path d="M5.26001822,0 L3.25881142,0 C3.23022474,0 3.21202687,0.0305325261 3.22632022,0.0549999003 C3.27707899,0.14191077 3.32679192,0.23702338 3.37232144,0.339855273 C3.68914547,1.05664595 3.65198279,1.79521604 3.26480765,2.47568473 C3.12989248,2.71284596 3.00543584,2.88976919 2.8478605,3.11376628 L2.81878576,3.15511959 C2.76440135,3.2325192 2.70234734,3.31446767 2.63666771,3.40130962 C2.2384065,3.92746155 1.70836769,4.62805551 1.69985708,5.75727653 C1.69923389,5.83881146 1.7669355,5.90483892 1.84941853,5.90483892 L3.43291124,5.90483892 C3.51497593,5.90483892 3.58163168,5.83839793 3.5819803,5.75727653 C3.58372339,5.25290401 3.67938417,4.78154522 3.87182132,4.32700342 C3.91776917,4.21851992 4.03302228,4.15001127 4.15001848,4.171515 C4.31470563,4.20184075 4.40004732,4.3700798 4.33896944,4.51364469 C4.17142363,4.90725926 4.08789475,5.31707057 4.08587278,5.75727653 C4.08552416,5.83874255 4.15308632,5.90476999 4.23549962,5.90476999 L5.26015766,5.90476999 C5.65423546,5.90476999 5.973709,5.58896857 5.973709,5.1994204 L5.973709,0.705142832 C5.97356956,0.315801432 5.65409601,0 5.26001822,0 Z" id="路径" fill="#FFFFFF" fill-rule="nonzero"></path>
                </g>
            </g>
        </g>
    </g>
</svg>