<?xml version="1.0" encoding="UTF-8"?>
<svg width="4px" height="4px" viewBox="0 0 4 4" version="1.1" xmlns="http://www.w3.org/2000/svg" xmlns:xlink="http://www.w3.org/1999/xlink">
    <title>编组 23</title>
    <defs>
        <linearGradient x1="6.85811065%" y1="4.67000864%" x2="83.5397986%" y2="93.4295445%" id="linearGradient-1">
            <stop stop-color="#079CFF" offset="0%"></stop>
            <stop stop-color="#3355FC" offset="100%"></stop>
        </linearGradient>
        <filter id="filter-2">
            <feColorMatrix in="SourceGraphic" type="matrix" values="0 0 0 0 1.000000 0 0 0 0 1.000000 0 0 0 0 1.000000 0 0 0 1.000000 0"></feColorMatrix>
        </filter>
    </defs>
    <g id="页面-1" stroke="none" stroke-width="1" fill="none" fill-rule="evenodd">
        <g id="编组-23">
            <rect id="矩形" fill="url(#linearGradient-1)" x="0" y="0" width="40" height="40" rx="4"></rect>
            <g filter="url(#filter-2)" id="分组">
                <g transform="translate(6.000000, 6.000000)">
                    <path d="M10.4980465,14.6668506 C10.7920465,14.2783908 11.0697674,13.9114942 11.3002791,13.5835403 L11.4366976,13.3897931 C12.1366977,12.3946667 12.6895349,11.6084138 13.2648372,10.5978391 C15.8037209,6.13554023 13.7226046,2.27154023 12.3545116,0.454436781 C12.2239535,0.280965517 12.0194884,0.177333333 11.8010233,0.177333333 L6.73334884,0.177333333 C3.05297675,0.177333333 0.0696744186,3.12634483 0.0696744186,6.7644138 L0.0696744186,24.4571954 C0.0696744186,26.2762299 1.56148837,27.7508965 3.40167442,27.7508965 L4.95860465,27.7508965 C5.34148837,27.7508965 5.65274419,27.4406436 5.65534884,27.0618391 C5.69311628,21.018023 8.54390698,17.2486436 10.4980465,14.6668506 Z M4.3067907,7.31829882 C4.1212093,6.34956322 4.96413954,5.51632184 5.94413954,5.70009196 C6.49176744,5.80275862 6.93293023,6.23917241 7.03679067,6.78018391 C7.22237208,7.74891957 6.37944186,8.58216093 5.39944186,8.39839077 C4.85213954,8.29604601 4.41065116,7.8596322 4.3067907,7.31829882 Z" id="形状" fill="#FFFFFF" fill-rule="nonzero"></path>
                    <path d="M24.6318605,0.177011494 L15.2870233,0.177011494 C15.1535349,0.177011494 15.0685581,0.319586207 15.1353023,0.43383908 C15.3723256,0.839678161 15.6044651,1.28381609 15.8170698,1.764 C17.2965116,5.11112644 17.1229767,8.55995399 15.3150233,11.7374713 C14.6850233,12.8449196 14.1038605,13.6710804 13.3680465,14.7170575 L13.2322791,14.9101609 C12.9783256,15.2715862 12.6885581,15.6542529 12.3818605,16.0597701 C10.5221395,18.5166897 8.0470698,21.7881839 8.00732865,27.0611954 C8.00441859,27.441931 8.32055812,27.7502529 8.70572094,27.7502529 L16.1,27.7502529 C16.4832093,27.7502529 16.7944651,27.44 16.796093,27.0611954 C16.8042325,24.705977 17.2509302,22.5049196 18.1495349,20.3823908 C18.364093,19.8758161 18.9022791,19.555908 19.4486046,19.6563219 C20.2176279,19.797931 20.6161395,20.5835402 20.3309302,21.253931 C19.5485581,23.091954 19.1585116,25.0056092 19.1490698,27.0611954 C19.1474419,27.4416092 19.4629302,27.749931 19.8477674,27.749931 L24.6325116,27.749931 C26.4726976,27.749931 27.9645116,26.2752644 27.9645116,24.4562299 L27.9645116,3.46974713 C27.9638605,1.65167816 26.4720465,0.177011494 24.6318605,0.177011494 Z" id="路径" fill="#FFFFFF" fill-rule="nonzero"></path>
                </g>
            </g>
        </g>
    </g>
</svg>